<?xml version="1.0" standalone="no"?>
<!DOCTYPE svg PUBLIC "-//W3C//DTD SVG 20010904//EN"
 "http://www.w3.org/TR/2001/REC-SVG-20010904/DTD/svg10.dtd">
<svg version="1.0" xmlns="http://www.w3.org/2000/svg"
 width="800.000000pt" height="800.000000pt" viewBox="0 0 800.000000 800.000000"
 preserveAspectRatio="xMidYMid meet">
<metadata>
Created by potrace 1.14, written by Peter Selinger 2001-2017
</metadata>
<g transform="translate(0.000000,800.000000) scale(0.100000,-0.100000)"
fill="#000000" stroke="none">
<path d="M698 7175 c-2 -2 -41 -5 -88 -8 -109 -8 -141 -14 -216 -42 -126 -47
-214 -112 -272 -199 -33 -48 -78 -148 -87 -191 -33 -162 -33 -152 -32 -2635 0
-1346 4 -2480 9 -2521 26 -227 159 -458 336 -581 70 -48 181 -95 272 -113 79
-17 207 -18 1840 -17 965 0 2441 3 3280 5 1523 4 1607 6 1687 38 16 7 37 15
48 19 193 75 354 224 437 407 33 74 52 133 64 203 10 59 12 5227 2 5303 -18
137 -122 259 -268 313 -40 15 -115 17 -681 18 l-636 1 21 -45 c27 -55 169
-337 391 -775 92 -181 190 -375 217 -430 27 -55 53 -107 58 -115 15 -24 42
-84 44 -100 5 -26 -15 -69 -41 -90 -24 -19 -42 -20 -462 -19 -470 1 -501 3
-588 55 -50 29 -109 90 -139 142 -11 20 -118 228 -237 462 -119 234 -272 535
-341 670 l-124 245 -400 0 -399 0 42 -80 c174 -331 695 -1377 695 -1395 0 -40
-38 -89 -73 -95 -18 -4 -231 -5 -472 -2 -463 4 -454 3 -544 51 -47 25 -112 92
-146 151 -16 28 -27 50 -25 50 3 0 -5 16 -17 35 -11 19 -96 184 -188 365 -399
785 -458 901 -467 910 -6 6 -153 10 -402 10 -347 0 -393 -2 -387 -15 3 -8 48
-98 100 -200 51 -102 190 -376 308 -610 119 -234 224 -440 235 -457 11 -18 17
-33 13 -33 -3 0 2 -12 13 -27 10 -16 28 -52 41 -81 22 -52 22 -54 4 -90 -10
-20 -29 -42 -43 -49 -19 -10 -129 -13 -455 -12 -466 1 -495 4 -585 56 -64 38
-97 79 -163 206 -179 345 -236 456 -355 687 -72 140 -173 338 -224 440 l-94
185 -252 1 c-139 0 -253 0 -254 -1z"/>
</g>
</svg>
